<mxfile host="app.diagrams.net" agent="Mozilla/5.0 (Windows NT 10.0; Win64; x64) AppleWebKit/537.36 (KHTML, like Gecko) Chrome/129.0.0.0 Safari/537.36" version="24.7.17">
  <diagram name="Страница — 1" id="Xqw9MdRf_Xbik-qswrBP">
    <mxGraphModel dx="2261" dy="1915" grid="1" gridSize="10" guides="1" tooltips="1" connect="1" arrows="1" fold="1" page="1" pageScale="1" pageWidth="827" pageHeight="1169" math="0" shadow="0">
      <root>
        <mxCell id="0" />
        <mxCell id="1" parent="0" />
        <mxCell id="uYU-WSYhGIhVMM-UQ9y3-1" value="&lt;font style=&quot;font-size: 19px;&quot; color=&quot;#005912&quot;&gt;index.js&lt;/font&gt;" style="rounded=1;whiteSpace=wrap;html=1;" parent="1" vertex="1">
          <mxGeometry x="10" y="50" width="190" height="60" as="geometry" />
        </mxCell>
        <mxCell id="uYU-WSYhGIhVMM-UQ9y3-7" style="edgeStyle=orthogonalEdgeStyle;rounded=0;orthogonalLoop=1;jettySize=auto;html=1;entryX=0.5;entryY=0;entryDx=0;entryDy=0;" parent="1" source="uYU-WSYhGIhVMM-UQ9y3-2" target="uYU-WSYhGIhVMM-UQ9y3-3" edge="1">
          <mxGeometry relative="1" as="geometry">
            <Array as="points">
              <mxPoint x="414" y="400" />
              <mxPoint x="4" y="400" />
            </Array>
          </mxGeometry>
        </mxCell>
        <mxCell id="uYU-WSYhGIhVMM-UQ9y3-8" style="edgeStyle=orthogonalEdgeStyle;rounded=0;orthogonalLoop=1;jettySize=auto;html=1;entryX=0.5;entryY=0;entryDx=0;entryDy=0;" parent="1" source="uYU-WSYhGIhVMM-UQ9y3-2" target="uYU-WSYhGIhVMM-UQ9y3-4" edge="1">
          <mxGeometry relative="1" as="geometry">
            <Array as="points">
              <mxPoint x="414" y="400" />
              <mxPoint x="274" y="400" />
            </Array>
          </mxGeometry>
        </mxCell>
        <mxCell id="uYU-WSYhGIhVMM-UQ9y3-9" style="edgeStyle=orthogonalEdgeStyle;rounded=0;orthogonalLoop=1;jettySize=auto;html=1;entryX=0.5;entryY=0;entryDx=0;entryDy=0;" parent="1" source="uYU-WSYhGIhVMM-UQ9y3-2" target="uYU-WSYhGIhVMM-UQ9y3-6" edge="1">
          <mxGeometry relative="1" as="geometry">
            <Array as="points">
              <mxPoint x="414" y="400" />
              <mxPoint x="548" y="400" />
            </Array>
          </mxGeometry>
        </mxCell>
        <mxCell id="uYU-WSYhGIhVMM-UQ9y3-10" style="edgeStyle=orthogonalEdgeStyle;rounded=0;orthogonalLoop=1;jettySize=auto;html=1;entryX=0.5;entryY=0;entryDx=0;entryDy=0;" parent="1" source="uYU-WSYhGIhVMM-UQ9y3-2" target="uYU-WSYhGIhVMM-UQ9y3-5" edge="1">
          <mxGeometry relative="1" as="geometry">
            <Array as="points">
              <mxPoint x="414" y="400" />
              <mxPoint x="824" y="400" />
            </Array>
          </mxGeometry>
        </mxCell>
        <mxCell id="uYU-WSYhGIhVMM-UQ9y3-2" value="&lt;span style=&quot;font-size: 19px;&quot;&gt;BrowserRouter&lt;/span&gt;" style="rounded=1;whiteSpace=wrap;html=1;" parent="1" vertex="1">
          <mxGeometry x="319" y="310" width="190" height="60" as="geometry" />
        </mxCell>
        <mxCell id="uYU-WSYhGIhVMM-UQ9y3-3" value="&lt;span style=&quot;font-size: 19px;&quot;&gt;Navbar&lt;/span&gt;" style="rounded=1;whiteSpace=wrap;html=1;" parent="1" vertex="1">
          <mxGeometry x="-91" y="440" width="190" height="60" as="geometry" />
        </mxCell>
        <mxCell id="uYU-WSYhGIhVMM-UQ9y3-4" value="&lt;span style=&quot;font-size: 19px;&quot;&gt;Header&lt;/span&gt;" style="rounded=1;whiteSpace=wrap;html=1;" parent="1" vertex="1">
          <mxGeometry x="179" y="440" width="190" height="60" as="geometry" />
        </mxCell>
        <mxCell id="uYU-WSYhGIhVMM-UQ9y3-19" style="edgeStyle=orthogonalEdgeStyle;rounded=0;orthogonalLoop=1;jettySize=auto;html=1;entryX=0.5;entryY=0;entryDx=0;entryDy=0;" parent="1" source="uYU-WSYhGIhVMM-UQ9y3-5" target="uYU-WSYhGIhVMM-UQ9y3-17" edge="1">
          <mxGeometry relative="1" as="geometry" />
        </mxCell>
        <mxCell id="uYU-WSYhGIhVMM-UQ9y3-20" style="edgeStyle=orthogonalEdgeStyle;rounded=0;orthogonalLoop=1;jettySize=auto;html=1;entryX=0.5;entryY=0;entryDx=0;entryDy=0;" parent="1" source="uYU-WSYhGIhVMM-UQ9y3-5" target="uYU-WSYhGIhVMM-UQ9y3-18" edge="1">
          <mxGeometry relative="1" as="geometry" />
        </mxCell>
        <mxCell id="uYU-WSYhGIhVMM-UQ9y3-5" value="&lt;span style=&quot;font-size: 19px;&quot;&gt;Dialogs&lt;/span&gt;" style="rounded=1;whiteSpace=wrap;html=1;" parent="1" vertex="1">
          <mxGeometry x="729" y="440" width="190" height="60" as="geometry" />
        </mxCell>
        <mxCell id="uYU-WSYhGIhVMM-UQ9y3-14" style="edgeStyle=orthogonalEdgeStyle;rounded=0;orthogonalLoop=1;jettySize=auto;html=1;entryX=0.5;entryY=0;entryDx=0;entryDy=0;" parent="1" source="uYU-WSYhGIhVMM-UQ9y3-6" target="uYU-WSYhGIhVMM-UQ9y3-11" edge="1">
          <mxGeometry relative="1" as="geometry">
            <Array as="points">
              <mxPoint x="548" y="730" />
              <mxPoint x="318" y="730" />
            </Array>
          </mxGeometry>
        </mxCell>
        <mxCell id="uYU-WSYhGIhVMM-UQ9y3-16" style="edgeStyle=orthogonalEdgeStyle;rounded=0;orthogonalLoop=1;jettySize=auto;html=1;entryX=0.5;entryY=0;entryDx=0;entryDy=0;" parent="1" source="uYU-WSYhGIhVMM-UQ9y3-6" target="uYU-WSYhGIhVMM-UQ9y3-13" edge="1">
          <mxGeometry relative="1" as="geometry">
            <Array as="points">
              <mxPoint x="548" y="730" />
              <mxPoint x="778" y="730" />
            </Array>
          </mxGeometry>
        </mxCell>
        <mxCell id="uYU-WSYhGIhVMM-UQ9y3-22" style="edgeStyle=orthogonalEdgeStyle;rounded=0;orthogonalLoop=1;jettySize=auto;html=1;entryX=0.5;entryY=0;entryDx=0;entryDy=0;" parent="1" source="uYU-WSYhGIhVMM-UQ9y3-6" target="uYU-WSYhGIhVMM-UQ9y3-12" edge="1">
          <mxGeometry relative="1" as="geometry" />
        </mxCell>
        <mxCell id="uYU-WSYhGIhVMM-UQ9y3-6" value="&lt;span style=&quot;font-size: 19px;&quot;&gt;Content&lt;/span&gt;" style="rounded=1;whiteSpace=wrap;html=1;" parent="1" vertex="1">
          <mxGeometry x="453" y="440" width="190" height="60" as="geometry" />
        </mxCell>
        <mxCell id="uYU-WSYhGIhVMM-UQ9y3-11" value="&lt;span style=&quot;font-size: 19px;&quot;&gt;Friends&lt;/span&gt;" style="rounded=1;whiteSpace=wrap;html=1;" parent="1" vertex="1">
          <mxGeometry x="223" y="780" width="190" height="60" as="geometry" />
        </mxCell>
        <mxCell id="uYU-WSYhGIhVMM-UQ9y3-24" style="edgeStyle=orthogonalEdgeStyle;rounded=0;orthogonalLoop=1;jettySize=auto;html=1;entryX=0.5;entryY=0;entryDx=0;entryDy=0;" parent="1" source="uYU-WSYhGIhVMM-UQ9y3-12" target="uYU-WSYhGIhVMM-UQ9y3-23" edge="1">
          <mxGeometry relative="1" as="geometry" />
        </mxCell>
        <mxCell id="uYU-WSYhGIhVMM-UQ9y3-12" value="&lt;span style=&quot;font-size: 19px;&quot;&gt;Posts&lt;/span&gt;" style="rounded=1;whiteSpace=wrap;html=1;" parent="1" vertex="1">
          <mxGeometry x="453" y="780" width="190" height="60" as="geometry" />
        </mxCell>
        <mxCell id="uYU-WSYhGIhVMM-UQ9y3-13" value="&lt;span style=&quot;font-size: 19px;&quot;&gt;Profile&lt;/span&gt;" style="rounded=1;whiteSpace=wrap;html=1;" parent="1" vertex="1">
          <mxGeometry x="683" y="780" width="190" height="60" as="geometry" />
        </mxCell>
        <mxCell id="uYU-WSYhGIhVMM-UQ9y3-17" value="&lt;span style=&quot;font-size: 19px;&quot;&gt;DialogItem&lt;/span&gt;" style="rounded=1;whiteSpace=wrap;html=1;" parent="1" vertex="1">
          <mxGeometry x="613.5" y="580" width="190" height="60" as="geometry" />
        </mxCell>
        <mxCell id="uYU-WSYhGIhVMM-UQ9y3-18" value="&lt;span style=&quot;font-size: 19px;&quot;&gt;Message&lt;/span&gt;" style="rounded=1;whiteSpace=wrap;html=1;" parent="1" vertex="1">
          <mxGeometry x="844.5" y="580" width="190" height="60" as="geometry" />
        </mxCell>
        <mxCell id="uYU-WSYhGIhVMM-UQ9y3-23" value="&lt;span style=&quot;font-size: 19px;&quot;&gt;Posts&lt;/span&gt;" style="rounded=1;whiteSpace=wrap;html=1;" parent="1" vertex="1">
          <mxGeometry x="453" y="900" width="190" height="60" as="geometry" />
        </mxCell>
        <mxCell id="uYU-WSYhGIhVMM-UQ9y3-25" value="&lt;span style=&quot;font-size: 19px;&quot;&gt;Posts&lt;/span&gt;" style="rounded=1;whiteSpace=wrap;html=1;" parent="1" vertex="1">
          <mxGeometry x="463" y="910" width="190" height="60" as="geometry" />
        </mxCell>
        <mxCell id="uYU-WSYhGIhVMM-UQ9y3-26" value="&lt;span style=&quot;font-size: 19px;&quot;&gt;Post&lt;/span&gt;" style="rounded=1;whiteSpace=wrap;html=1;" parent="1" vertex="1">
          <mxGeometry x="473" y="920" width="190" height="60" as="geometry" />
        </mxCell>
        <mxCell id="uYU-WSYhGIhVMM-UQ9y3-28" style="edgeStyle=orthogonalEdgeStyle;rounded=0;orthogonalLoop=1;jettySize=auto;html=1;" parent="1" source="uYU-WSYhGIhVMM-UQ9y3-27" target="uYU-WSYhGIhVMM-UQ9y3-2" edge="1">
          <mxGeometry relative="1" as="geometry" />
        </mxCell>
        <mxCell id="uYU-WSYhGIhVMM-UQ9y3-27" value="&lt;span style=&quot;font-size: 19px;&quot;&gt;App&lt;/span&gt;" style="rounded=1;whiteSpace=wrap;html=1;" parent="1" vertex="1">
          <mxGeometry x="319" y="190" width="190" height="60" as="geometry" />
        </mxCell>
        <mxCell id="_VWzNm5z-xwSrh0rgTcG-1" value="" style="endArrow=classic;html=1;rounded=0;exitX=1;exitY=1;exitDx=0;exitDy=0;entryX=0;entryY=0;entryDx=0;entryDy=0;" edge="1" parent="1" source="uYU-WSYhGIhVMM-UQ9y3-1" target="uYU-WSYhGIhVMM-UQ9y3-27">
          <mxGeometry width="50" height="50" relative="1" as="geometry">
            <mxPoint x="330" y="430" as="sourcePoint" />
            <mxPoint x="380" y="380" as="targetPoint" />
          </mxGeometry>
        </mxCell>
        <mxCell id="_VWzNm5z-xwSrh0rgTcG-2" value="&lt;font style=&quot;font-size: 19px;&quot; color=&quot;#005912&quot;&gt;render.js&lt;/font&gt;" style="rounded=1;whiteSpace=wrap;html=1;" vertex="1" parent="1">
          <mxGeometry x="330" y="-20" width="190" height="60" as="geometry" />
        </mxCell>
        <mxCell id="_VWzNm5z-xwSrh0rgTcG-3" value="&lt;font style=&quot;font-size: 19px;&quot; color=&quot;#005912&quot;&gt;state.js&lt;/font&gt;" style="rounded=1;whiteSpace=wrap;html=1;" vertex="1" parent="1">
          <mxGeometry x="10" y="-100" width="190" height="60" as="geometry" />
        </mxCell>
        <mxCell id="_VWzNm5z-xwSrh0rgTcG-4" value="" style="endArrow=classic;html=1;rounded=0;entryX=1;entryY=1;entryDx=0;entryDy=0;exitX=0;exitY=0.5;exitDx=0;exitDy=0;strokeColor=#129900;strokeWidth=2;" edge="1" parent="1" source="_VWzNm5z-xwSrh0rgTcG-2" target="_VWzNm5z-xwSrh0rgTcG-3">
          <mxGeometry width="50" height="50" relative="1" as="geometry">
            <mxPoint x="330" y="230" as="sourcePoint" />
            <mxPoint x="380" y="180" as="targetPoint" />
          </mxGeometry>
        </mxCell>
        <mxCell id="_VWzNm5z-xwSrh0rgTcG-7" value="Import" style="edgeLabel;html=1;align=center;verticalAlign=middle;resizable=0;points=[];" vertex="1" connectable="0" parent="_VWzNm5z-xwSrh0rgTcG-4">
          <mxGeometry x="0.0907" relative="1" as="geometry">
            <mxPoint as="offset" />
          </mxGeometry>
        </mxCell>
        <mxCell id="_VWzNm5z-xwSrh0rgTcG-5" value="" style="endArrow=classic;html=1;rounded=0;entryX=1;entryY=0.5;entryDx=0;entryDy=0;exitX=0;exitY=0.5;exitDx=0;exitDy=0;strokeColor=#129900;strokeWidth=2;" edge="1" parent="1" source="_VWzNm5z-xwSrh0rgTcG-2" target="uYU-WSYhGIhVMM-UQ9y3-1">
          <mxGeometry width="50" height="50" relative="1" as="geometry">
            <mxPoint x="340" y="20" as="sourcePoint" />
            <mxPoint x="210" y="-30" as="targetPoint" />
          </mxGeometry>
        </mxCell>
        <mxCell id="_VWzNm5z-xwSrh0rgTcG-8" value="import" style="edgeLabel;html=1;align=center;verticalAlign=middle;resizable=0;points=[];" vertex="1" connectable="0" parent="_VWzNm5z-xwSrh0rgTcG-5">
          <mxGeometry x="-0.0596" y="2" relative="1" as="geometry">
            <mxPoint y="1" as="offset" />
          </mxGeometry>
        </mxCell>
        <mxCell id="_VWzNm5z-xwSrh0rgTcG-6" value="" style="endArrow=classic;html=1;rounded=0;entryX=0.5;entryY=0;entryDx=0;entryDy=0;exitX=0.5;exitY=1;exitDx=0;exitDy=0;strokeColor=#129900;strokeWidth=2;" edge="1" parent="1" source="_VWzNm5z-xwSrh0rgTcG-3" target="uYU-WSYhGIhVMM-UQ9y3-1">
          <mxGeometry width="50" height="50" relative="1" as="geometry">
            <mxPoint x="340" y="20" as="sourcePoint" />
            <mxPoint x="210" y="-30" as="targetPoint" />
          </mxGeometry>
        </mxCell>
        <mxCell id="_VWzNm5z-xwSrh0rgTcG-9" value="import" style="edgeLabel;html=1;align=center;verticalAlign=middle;resizable=0;points=[];" vertex="1" connectable="0" parent="_VWzNm5z-xwSrh0rgTcG-6">
          <mxGeometry x="-0.1778" y="-2" relative="1" as="geometry">
            <mxPoint as="offset" />
          </mxGeometry>
        </mxCell>
      </root>
    </mxGraphModel>
  </diagram>
</mxfile>
